<svg width="144" height="144" viewBox="0 0 144 144" fill="none" xmlns="http://www.w3.org/2000/svg">
<path d="M111.11 32.67C108.16 29.72 104.24 28.1 100.07 28.1C95.9 28.1 91.97 29.72 89.02 32.67L71.85 49.84L76.8 54.79L93.97 37.62C94.79 36.81 95.73 36.17 96.77 35.75C97.8 35.32 98.91 35.1 100.07 35.1C102.37 35.1 104.53 35.99 106.16 37.62C107.79 39.25 108.69 41.42 108.69 43.72C108.69 46.02 107.79 48.19 106.16 49.82L71.88 84.1L65.78 78C59.68 71.92 49.77 71.92 43.69 78L32.64 89.04C26.68 95.01 26.57 104.81 32.41 110.9C35.29 113.9 39.2 115.57 43.43 115.62H43.59C47.83 115.62 51.95 113.91 54.93 110.93L74.34 91.53H74.35L111.11 54.76L111.22 54.64C112.66 53.17 113.78 51.47 114.53 49.62C115.29 47.77 115.69 45.77 115.69 43.71C115.69 39.54 114.06 35.61 111.11 32.66V32.67ZM49.98 105.99C48.31 107.67 45.98 108.63 43.59 108.63H43.5C41.17 108.6 39.02 107.69 37.46 106.07C34.24 102.71 34.3 97.3 37.59 94L48.64 82.96C50.32 81.28 52.53 80.44 54.73 80.44C56.93 80.44 59.15 81.27 60.83 82.95L66.93 89.05L49.98 105.99Z" fill="url(#paint0_linear_8_128)"/>
<path d="M111.11 89.05L75.37 53.3V53.2L74.28 52.22L54.73 32.67C51.68 29.61 47.45 27.96 43.12 28.1C38.74 28.26 34.74 30.18 31.86 33.5C26.53 39.66 26.95 49.07 32.82 54.94L43.69 65.8C46.73 68.85 50.73 70.37 54.73 70.37C58.73 70.37 62.73 68.85 65.78 65.81L71.87 59.72L66.92 54.77L60.77 60.92C57.41 64.22 51.98 64.2 48.65 60.86L37.78 49.99C34.5 46.7 34.23 41.48 37.16 38.09C38.76 36.24 40.97 35.18 43.38 35.1C43.49 35.1 43.6 35.1 43.7 35.1C46.01 35.1 48.16 35.99 49.79 37.63L106.17 94C107.8 95.63 108.7 97.8 108.7 100.1C108.7 102.4 107.8 104.57 106.17 106.2C104.54 107.83 102.38 108.72 100.08 108.72C98.93 108.72 97.81 108.5 96.77 108.07C95.74 107.64 94.79 107.02 93.98 106.2L76.84 89.06L71.89 94.01L89.03 111.15C91.98 114.1 95.9 115.72 100.07 115.72H100.08C104.25 115.72 108.17 114.1 111.12 111.15C114.07 108.2 115.7 104.27 115.7 100.1C115.7 95.93 114.07 92.01 111.12 89.06L111.11 89.05Z" fill="url(#paint1_linear_8_128)"/>
<defs>
<linearGradient id="paint0_linear_8_128" x1="86.5" y1="84.18" x2="57.24" y2="59.63" gradientUnits="userSpaceOnUse">
<stop stop-color="#00C9F2"/>
<stop offset="1" stop-color="#00D887"/>
</linearGradient>
<linearGradient id="paint1_linear_8_128" x1="57.26" y1="84.17" x2="86.5" y2="59.63" gradientUnits="userSpaceOnUse">
<stop stop-color="#FFAF2F"/>
<stop offset="0.52" stop-color="#FF83BA"/>
<stop offset="1" stop-color="#D687FF"/>
</linearGradient>
</defs>
</svg>
