<svg width="88" height="88" viewBox="0 0 88 88" fill="none" xmlns="http://www.w3.org/2000/svg">
<path d="M83.0109 4.57824C80.0609 1.62824 76.1409 0.00823975 71.9709 0.00823975C67.8009 0.00823975 63.8709 1.62824 60.9209 4.57824L43.7509 21.7482L48.7009 26.6982L65.8709 9.52824C66.6909 8.71824 67.6309 8.07824 68.6709 7.65824C69.7009 7.22824 70.8109 7.00824 71.9709 7.00824C74.2709 7.00824 76.4309 7.89824 78.0609 9.52824C79.6909 11.1582 80.5909 13.3282 80.5909 15.6282C80.5909 17.9282 79.6909 20.0982 78.0609 21.7282L43.7809 56.0082L37.6809 49.9082C31.5809 43.8282 21.6709 43.8282 15.5909 49.9082L4.54092 60.9482C-1.41908 66.9182 -1.52908 76.7182 4.31092 82.8082C7.19092 85.8082 11.1009 87.4782 15.3309 87.5282H15.4909C19.7309 87.5282 23.8509 85.8182 26.8309 82.8382L46.2409 63.4382H46.2509L83.0109 26.6682L83.1209 26.5482C84.5609 25.0782 85.6809 23.3782 86.4309 21.5282C87.1909 19.6782 87.5909 17.6782 87.5909 15.6182C87.5909 11.4482 85.9609 7.51824 83.0109 4.56824V4.57824ZM21.8809 77.8982C20.2109 79.5782 17.8809 80.5382 15.4909 80.5382H15.4009C13.0709 80.5082 10.9209 79.5982 9.36092 77.9782C6.14092 74.6182 6.20092 69.2082 9.49092 65.9082L20.5409 54.8682C22.2209 53.1882 24.4309 52.3482 26.6309 52.3482C28.8309 52.3482 31.0509 53.1782 32.7309 54.8582L38.8309 60.9582L21.8809 77.8982Z" fill="black"/>
<path d="M83.0108 60.9582L47.2708 25.2082V25.1082L46.1808 24.1282L26.6308 4.57823C23.5808 1.51823 19.3508 -0.131765 15.0208 0.00823517C10.6408 0.168235 6.64083 2.08823 3.76083 5.40823C-1.56917 11.5682 -1.14917 20.9782 4.72083 26.8482L15.5908 37.7082C18.6308 40.7582 22.6308 42.2782 26.6308 42.2782C30.6308 42.2782 34.6308 40.7582 37.6808 37.7182L43.7708 31.6282L38.8208 26.6782L32.6708 32.8282C29.3108 36.1282 23.8808 36.1082 20.5508 32.7682L9.68083 21.8982C6.40083 18.6082 6.13083 13.3882 9.06083 9.99823C10.6608 8.14823 12.8708 7.08823 15.2808 7.00823C15.3908 7.00823 15.5008 7.00823 15.6008 7.00823C17.9108 7.00823 20.0608 7.89824 21.6908 9.53824L78.0708 65.9082C79.7008 67.5382 80.6008 69.7082 80.6008 72.0082C80.6008 74.3082 79.7008 76.4782 78.0708 78.1082C76.4408 79.7382 74.2808 80.6282 71.9808 80.6282C70.8308 80.6282 69.7108 80.4082 68.6708 79.9782C67.6408 79.5482 66.6908 78.9282 65.8808 78.1082L48.7408 60.9682L43.7908 65.9182L60.9308 83.0582C63.8808 86.0082 67.8008 87.6282 71.9708 87.6282H71.9808C76.1508 87.6282 80.0708 86.0082 83.0208 83.0582C85.9708 80.1082 87.6008 76.1782 87.6008 72.0082C87.6008 67.8382 85.9708 63.9182 83.0208 60.9682L83.0108 60.9582Z" fill="black"/>
</svg>
